<svg width="724" height="641" viewBox="0 0 724 641" fill="none" xmlns="http://www.w3.org/2000/svg">
<path d="M121.156 0C167.824 0 217.155 18.5 252.156 67.5C271.155 94.0976 329.654 312.5 414.655 407C515.654 539 822.656 638 691.156 638C651.656 638 256.516 676 111.656 471C-26.844 275 -9.84399 126.5 22.6562 67.5C44.6903 27.5 74.4883 4.49694e-05 121.156 0ZM121.156 13C94.9228 13.0001 73.6562 29.7894 73.6562 50.5C73.6562 71.2106 94.9228 87.9999 121.156 88C147.39 88 168.656 71.2107 168.656 50.5C168.656 29.7893 147.39 13 121.156 13Z" fill="#D9D9D9"/>
</svg>
