<svg width="618" height="854" viewBox="0 0 618 854" fill="none" xmlns="http://www.w3.org/2000/svg">
<g filter="url(#filter0_d_25_249)">
<g clip-path="url(#clip0_25_249)">
<path d="M39.4199 335.931L20 335.956L226.558 137.445L245.978 137.586L39.4199 335.931Z" fill="#040000"/>
<path d="M39.4199 335.956H20V371.084H39.4199V335.956Z" fill="#040000"/>
<g filter="url(#filter1_i_25_249)">
<path d="M96.9001 467.686H77.4802V767.627H96.9001V467.686Z" fill="white"/>
</g>
<path d="M96.9001 467.686H77.4802V767.627H96.9001V467.686Z" stroke="#040000" stroke-width="2" stroke-miterlimit="10"/>
<g filter="url(#filter2_i_25_249)">
<path d="M420.636 467.686H401.216V767.627H420.636V467.686Z" fill="white"/>
</g>
<path d="M420.636 467.686H401.216V767.627H420.636V467.686Z" stroke="#040000" stroke-width="2" stroke-miterlimit="10"/>
<g filter="url(#filter3_i_25_249)">
<path d="M206.774 357.897H187.354V657.838H206.774V357.897Z" fill="white"/>
</g>
<path d="M206.774 357.897H187.354V657.838H206.774V357.897Z" stroke="#040000" stroke-width="2" stroke-miterlimit="10"/>
<g filter="url(#filter4_i_25_249)">
<path d="M530.509 357.897H511.089V657.838H530.509V357.897Z" fill="white"/>
</g>
<path d="M530.509 357.897H511.089V657.838H530.509V357.897Z" stroke="#040000" stroke-width="2" stroke-miterlimit="10"/>
<path d="M80.1385 793.361C91.0932 793.361 99.9738 781.843 99.9738 767.634C99.9738 753.425 91.0932 741.906 80.1385 741.906C69.1838 741.906 60.3032 753.425 60.3032 767.634C60.3032 781.843 69.1838 793.361 80.1385 793.361Z" fill="#040000" stroke="white" stroke-width="2" stroke-miterlimit="10"/>
<path d="M94.2418 793.361C105.196 793.361 114.077 781.843 114.077 767.634C114.077 753.425 105.196 741.906 94.2418 741.906C83.2871 741.906 74.4065 753.425 74.4065 767.634C74.4065 781.843 83.2871 793.361 94.2418 793.361Z" fill="#040000" stroke="white" stroke-width="2" stroke-miterlimit="10"/>
<path d="M403.874 793.361C414.829 793.361 423.709 781.843 423.709 767.634C423.709 753.425 414.829 741.906 403.874 741.906C392.919 741.906 384.039 753.425 384.039 767.634C384.039 781.843 392.919 793.361 403.874 793.361Z" fill="#040000" stroke="white" stroke-width="2" stroke-miterlimit="10"/>
<path d="M417.977 793.361C428.932 793.361 437.813 781.843 437.813 767.634C437.813 753.425 428.932 741.906 417.977 741.906C407.023 741.906 398.142 753.425 398.142 767.634C398.142 781.843 407.023 793.361 417.977 793.361Z" fill="#040000" stroke="white" stroke-width="2" stroke-miterlimit="10"/>
<path d="M190.012 683.566C200.967 683.566 209.847 672.048 209.847 657.838C209.847 643.629 200.967 632.111 190.012 632.111C179.057 632.111 170.177 643.629 170.177 657.838C170.177 672.048 179.057 683.566 190.012 683.566Z" fill="#040000" stroke="white" stroke-width="2" stroke-miterlimit="10"/>
<path d="M204.109 683.566C215.064 683.566 223.944 672.048 223.944 657.838C223.944 643.629 215.064 632.111 204.109 632.111C193.154 632.111 184.274 643.629 184.274 657.838C184.274 672.048 193.154 683.566 204.109 683.566Z" fill="#040000" stroke="white" stroke-width="2" stroke-miterlimit="10"/>
<path d="M513.748 683.566C524.702 683.566 533.583 672.048 533.583 657.838C533.583 643.629 524.702 632.111 513.748 632.111C502.793 632.111 493.912 643.629 493.912 657.838C493.912 672.048 502.793 683.566 513.748 683.566Z" fill="#040000" stroke="white" stroke-width="2" stroke-miterlimit="10"/>
<path d="M527.845 683.566C538.799 683.566 547.68 672.048 547.68 657.838C547.68 643.629 538.799 632.111 527.845 632.111C516.89 632.111 508.009 643.629 508.009 657.838C508.009 672.048 516.89 683.566 527.845 683.566Z" fill="#040000" stroke="white" stroke-width="2" stroke-miterlimit="10"/>
<g filter="url(#filter5_i_25_249)">
<path d="M132.986 20.6385V355.158L21.9746 466.096V501.345H446.35L557.361 390.407V20.6385H132.986Z" fill="white"/>
</g>
<path d="M132.986 20.6385V355.158L21.9746 466.096V501.345H446.35L557.361 390.407V20.6385H132.986Z" stroke="#040000" stroke-width="2" stroke-miterlimit="10"/>
<path d="M537.909 225.982L419.952 335.956V371.077H439.372V335.956L557.329 226.123L537.909 225.982Z" fill="#040000"/>
<mask id="path-17-inside-1_25_249" fill="white">
<path d="M422.41 91C388.9 91 359.642 109.207 343.988 136.268C359.642 163.328 388.9 181.535 422.41 181.535C455.921 181.535 485.178 163.328 500.832 136.268C485.178 109.207 455.921 91.0002 422.41 91Z"/>
</mask>
<path d="M422.41 91C388.9 91 359.642 109.207 343.988 136.268C359.642 163.328 388.9 181.535 422.41 181.535C455.921 181.535 485.178 163.328 500.832 136.268C485.178 109.207 455.921 91.0002 422.41 91Z" fill="white"/>
<path d="M422.41 91V89H422.41L422.41 91ZM343.988 136.268L342.257 137.269L341.678 136.268L342.257 135.266L343.988 136.268ZM422.41 181.535L422.41 183.535H422.41V181.535ZM500.832 136.268L502.563 135.266L503.143 136.268L502.563 137.269L500.832 136.268ZM422.41 91V93C389.643 93 361.031 110.801 345.719 137.269L343.988 136.268L342.257 135.266C358.254 107.613 388.157 89 422.41 89V91ZM343.988 136.268L345.719 135.266C361.031 161.734 389.643 179.535 422.41 179.535V181.535V183.535C388.157 183.535 358.254 164.922 342.257 137.269L343.988 136.268ZM422.41 181.535L422.41 179.535C455.178 179.535 483.79 161.734 499.101 135.266L500.832 136.268L502.563 137.269C486.567 164.922 456.663 183.535 422.41 183.535L422.41 181.535ZM500.832 136.268L499.101 137.269C483.79 110.801 455.178 93.0002 422.41 93L422.41 91L422.41 89C456.663 89.0002 486.567 107.613 502.563 135.266L500.832 136.268Z" fill="#D9D9D9" mask="url(#path-17-inside-1_25_249)"/>
<path d="M422.152 91.4648C415.342 91.4649 408.707 92.2169 402.326 93.6426C386.037 101.15 374.729 117.62 374.729 136.732C374.729 155.848 386.041 172.318 402.335 179.824C408.713 181.249 415.345 182 422.152 182C428.96 182 435.593 181.249 441.971 179.824C458.265 172.318 469.576 155.848 469.576 136.732C469.576 117.619 458.267 101.147 441.976 93.6406C435.596 92.2154 428.962 91.4648 422.152 91.4648Z" fill="black"/>
<mask id="path-20-inside-2_25_249" fill="white">
<path d="M265.421 91.4648C231.911 91.465 202.654 109.672 187 136.732C202.654 163.793 231.911 182 265.421 182C298.932 182 328.19 163.793 343.844 136.732C328.19 109.672 298.932 91.4648 265.421 91.4648Z"/>
</mask>
<path d="M265.421 91.4648C231.911 91.465 202.654 109.672 187 136.732C202.654 163.793 231.911 182 265.421 182C298.932 182 328.19 163.793 343.844 136.732C328.19 109.672 298.932 91.4648 265.421 91.4648Z" fill="white"/>
<path d="M265.421 91.4648L265.421 89.4648H265.421V91.4648ZM187 136.732L185.269 137.734L184.689 136.732L185.269 135.731L187 136.732ZM265.421 182V184H265.421L265.421 182ZM343.844 136.732L345.575 135.731L346.154 136.732L345.575 137.734L343.844 136.732ZM265.421 91.4648L265.421 93.4648C232.653 93.4649 204.042 111.266 188.731 137.734L187 136.732L185.269 135.731C201.266 108.078 231.168 89.465 265.421 89.4648L265.421 91.4648ZM187 136.732L188.731 135.731C204.042 162.199 232.653 180 265.421 180L265.421 182L265.421 184C231.168 184 201.266 165.387 185.269 137.734L187 136.732ZM265.421 182V180C298.189 180 326.801 162.199 342.113 135.731L343.844 136.732L345.575 137.734C329.578 165.387 299.674 184 265.421 184V182ZM343.844 136.732L342.113 137.734C326.801 111.266 298.189 93.4648 265.421 93.4648V91.4648V89.4648C299.674 89.4648 329.578 108.078 345.575 135.731L343.844 136.732Z" fill="#D9D9D9" mask="url(#path-20-inside-2_25_249)"/>
<path d="M265.164 91.4648C258.353 91.4649 251.718 92.2169 245.337 93.6426C229.048 101.15 217.741 117.62 217.741 136.732C217.741 155.846 229.051 172.316 245.341 179.822C251.721 181.247 258.354 182 265.164 182C271.972 182 278.604 181.249 284.983 179.824C301.276 172.318 312.587 155.848 312.587 136.732C312.587 117.619 301.279 101.147 284.988 93.6406C278.608 92.2155 271.973 91.4648 265.164 91.4648Z" fill="black"/>
</g>
</g>
<defs>
<filter id="filter0_d_25_249" x="0" y="0" width="618" height="854" filterUnits="userSpaceOnUse" color-interpolation-filters="sRGB">
<feFlood flood-opacity="0" result="BackgroundImageFix"/>
<feColorMatrix in="SourceAlpha" type="matrix" values="0 0 0 0 0 0 0 0 0 0 0 0 0 0 0 0 0 0 127 0" result="hardAlpha"/>
<feOffset dx="20" dy="20"/>
<feGaussianBlur stdDeviation="20"/>
<feColorMatrix type="matrix" values="0 0 0 0 0 0 0 0 0 0 0 0 0 0 0 0 0 0 0.25 0"/>
<feBlend mode="normal" in2="BackgroundImageFix" result="effect1_dropShadow_25_249"/>
<feBlend mode="normal" in="SourceGraphic" in2="effect1_dropShadow_25_249" result="shape"/>
</filter>
<filter id="filter1_i_25_249" x="71.4802" y="466.686" width="26.4199" height="301.941" filterUnits="userSpaceOnUse" color-interpolation-filters="sRGB">
<feFlood flood-opacity="0" result="BackgroundImageFix"/>
<feBlend mode="normal" in="SourceGraphic" in2="BackgroundImageFix" result="shape"/>
<feColorMatrix in="SourceAlpha" type="matrix" values="0 0 0 0 0 0 0 0 0 0 0 0 0 0 0 0 0 0 127 0" result="hardAlpha"/>
<feOffset dx="-5"/>
<feGaussianBlur stdDeviation="5"/>
<feComposite in2="hardAlpha" operator="arithmetic" k2="-1" k3="1"/>
<feColorMatrix type="matrix" values="0 0 0 0 0 0 0 0 0 0 0 0 0 0 0 0 0 0 0.25 0"/>
<feBlend mode="normal" in2="shape" result="effect1_innerShadow_25_249"/>
</filter>
<filter id="filter2_i_25_249" x="395.216" y="466.686" width="26.4199" height="301.941" filterUnits="userSpaceOnUse" color-interpolation-filters="sRGB">
<feFlood flood-opacity="0" result="BackgroundImageFix"/>
<feBlend mode="normal" in="SourceGraphic" in2="BackgroundImageFix" result="shape"/>
<feColorMatrix in="SourceAlpha" type="matrix" values="0 0 0 0 0 0 0 0 0 0 0 0 0 0 0 0 0 0 127 0" result="hardAlpha"/>
<feOffset dx="-5"/>
<feGaussianBlur stdDeviation="5"/>
<feComposite in2="hardAlpha" operator="arithmetic" k2="-1" k3="1"/>
<feColorMatrix type="matrix" values="0 0 0 0 0 0 0 0 0 0 0 0 0 0 0 0 0 0 0.25 0"/>
<feBlend mode="normal" in2="shape" result="effect1_innerShadow_25_249"/>
</filter>
<filter id="filter3_i_25_249" x="181.354" y="356.897" width="26.4199" height="305.941" filterUnits="userSpaceOnUse" color-interpolation-filters="sRGB">
<feFlood flood-opacity="0" result="BackgroundImageFix"/>
<feBlend mode="normal" in="SourceGraphic" in2="BackgroundImageFix" result="shape"/>
<feColorMatrix in="SourceAlpha" type="matrix" values="0 0 0 0 0 0 0 0 0 0 0 0 0 0 0 0 0 0 127 0" result="hardAlpha"/>
<feOffset dx="-5" dy="4"/>
<feGaussianBlur stdDeviation="5"/>
<feComposite in2="hardAlpha" operator="arithmetic" k2="-1" k3="1"/>
<feColorMatrix type="matrix" values="0 0 0 0 0 0 0 0 0 0 0 0 0 0 0 0 0 0 0.25 0"/>
<feBlend mode="normal" in2="shape" result="effect1_innerShadow_25_249"/>
</filter>
<filter id="filter4_i_25_249" x="505.089" y="356.897" width="26.4199" height="311.941" filterUnits="userSpaceOnUse" color-interpolation-filters="sRGB">
<feFlood flood-opacity="0" result="BackgroundImageFix"/>
<feBlend mode="normal" in="SourceGraphic" in2="BackgroundImageFix" result="shape"/>
<feColorMatrix in="SourceAlpha" type="matrix" values="0 0 0 0 0 0 0 0 0 0 0 0 0 0 0 0 0 0 127 0" result="hardAlpha"/>
<feOffset dx="-5" dy="10"/>
<feGaussianBlur stdDeviation="5"/>
<feComposite in2="hardAlpha" operator="arithmetic" k2="-1" k3="1"/>
<feColorMatrix type="matrix" values="0 0 0 0 0 0 0 0 0 0 0 0 0 0 0 0 0 0 0.25 0"/>
<feBlend mode="normal" in2="shape" result="effect1_innerShadow_25_249"/>
</filter>
<filter id="filter5_i_25_249" x="10.9746" y="9.63867" width="547.386" height="492.706" filterUnits="userSpaceOnUse" color-interpolation-filters="sRGB">
<feFlood flood-opacity="0" result="BackgroundImageFix"/>
<feBlend mode="normal" in="SourceGraphic" in2="BackgroundImageFix" result="shape"/>
<feColorMatrix in="SourceAlpha" type="matrix" values="0 0 0 0 0 0 0 0 0 0 0 0 0 0 0 0 0 0 127 0" result="hardAlpha"/>
<feOffset dx="-10" dy="-10"/>
<feGaussianBlur stdDeviation="7.5"/>
<feComposite in2="hardAlpha" operator="arithmetic" k2="-1" k3="1"/>
<feColorMatrix type="matrix" values="0 0 0 0 0 0 0 0 0 0 0 0 0 0 0 0 0 0 0.25 0"/>
<feBlend mode="normal" in2="shape" result="effect1_innerShadow_25_249"/>
</filter>
<clipPath id="clip0_25_249">
<rect width="538" height="774" fill="white" transform="translate(20 20)"/>
</clipPath>
</defs>
</svg>
