<svg xmlns="http://www.w3.org/2000/svg" viewBox="0 0 265.05 384.07"><defs><style>.cls-1{fill:lime;}.cls-2{fill:#fff;}</style></defs><g id="레이어_2" data-name="레이어 2"><g id="레이어_1-2" data-name="레이어 1"><path class="cls-1" d="M132,89.63c9-5.7,15.94-19.66,13.41-30-4.32-17.61-16-19.87-22.36-28.91S115.45,11.57,123.5,4,145.42.73,153.25,8.65a35.49,35.49,0,0,1,9.38,15.84c2.67,10.39-.52,21.26-2.4,31.83a129,129,0,0,0-1.3,35.53c.45,4.37,1.85,9.6,6.09,10.77,3.66,1,7.34-1.76,9.49-4.9,5.64-8.22,5.4-18.92,6.21-28.85s3.85-21.09,12.76-25.55c14.41-7.2,33.65,6.16,37,20.5,2.94,12.52-4.73,25.24-13.16,33.9-8.83,9.07-19.59,16.41-26.7,26.88s-9.43,25.89-.74,35.1a5.4,5.4,0,0,0,3,1.87c1.67.24,3.22-.89,4.39-2.11,6.91-7.23,7.25-18.89,13.9-26.36,7.39-8.33,20.92-8.83,30.8-3.67,13.11,6.84,27.36,21.44,21.86,37.57-5.24,15.36-20.7,24.08-35.63,27.79A79.54,79.54,0,0,1,205.15,197c-7.62-.37-17.93-3.64-24.07,2.63-6.93,7.09,2.94,16,8,20.8,37.7,36.09,93.79,93.89,63.54,150.92-12,22.6-33.05,11.47-44.75-5.11-32.43-46-34.52-103.84-49.06-156.37-3.5-12.61-12.11-46.24-37.44-50.64-45.61-7.94-48.19,102.55-64.72,137.67-3.86,8.22-9.41,16.52-18,19.46-10.35,3.54-22.26-2.28-28.25-11.43-9-13.77-10.81-34.83,0-48.19,2.88-3.57,6.92-6,10.76-8.48,27.52-18,48.76-46.71,54-79.18,1.25-7.71-2.22-13.44-10.68-12.06-9.65,1.58-17.81,7.73-26.43,12.35s-19.33,7.76-28,3.15C.16,167.21-2.47,153.14,2.34,143a18.31,18.31,0,0,1,7.27-8.37c8-4.48,17.79.22,26.75,2.35,16.22,3.84,34.32-1.84,45.12-14.6,2.27-2.68,4.31-6.24,3.15-9.56-4-11.41-30.72-10.52-40-9-11,1.77-20.23,2-31.16-3.93-4.15-2.25-8.19-9.78-7-14.39,4.54-18,27.65-20.92,42.76-16.12,14.07,4.46,24.46,17.62,38,23.48s32.24,4.59,44.77-3.22"/><path class="cls-2" d="M250,322c1.33,7.73,3.48,11.82,1.26,28.39-1.79,13.38-10.7,19.52-15.57,21.31a8.9,8.9,0,0,1-5.47.56,2.69,2.69,0,0,1-1-4.56c3.61-3.34,12.56-14.92,13.48-32.9.6-11.92-4.57-30.48-.61-32.31C245.42,300.93,250,322,250,322Z"/><path class="cls-2" d="M251.26,152.73c5.65,9.4-1.16,18.06-4.12,21.06a7.81,7.81,0,0,1-3.83,2.29c-3.26.77-3.69-2.47-2.53-4.51,2.16-3.79,6-10,4.41-17.09C243,145,244,140.62,251.26,152.73Z"/></g></g></svg>
