<svg xmlns="http://www.w3.org/2000/svg" viewBox="0 0 217.24 361.54"><defs><style>.cls-1{fill:red;}.cls-2{fill:#fff;}</style></defs><g id="레이어_2" data-name="레이어 2"><g id="레이어_1-2" data-name="레이어 1"><path class="cls-1" d="M92.62,108.43c13-2.79,8.53-23.67,3.8-34.46-4.3-9.83-10.88-18.73-13.53-29.13a41.48,41.48,0,0,1,3.85-30c5.39-9.76,16.83-17.49,27.43-14,6.6,2.15,11.37,8.22,13.51,14.82s2,13.72,1.37,20.63c-2.46,26.84-12,53.61-7.29,80.16.71,4,2.37,8.6,6.3,9.61,5.78,1.48,9.59-5.71,11.47-11.36a145.71,145.71,0,0,1,14.16-30.4c3.43-5.6,11.72-9.79,17.64-4.88,11.53,9.59,0,25.06-12.85,33.18-17.37,11-2.91,42,20.39,50.4,8.65,3.11,19.34,1.57,27.1,7.06,9.77,6.92,11.59,23.51,11.23,34.46-.32,9.51-2,34.62-16.89,21.63-12.19-10.67-15.72-51.27-39.95-41.55a16.67,16.67,0,0,0-10.18,15.7c.24,6.18,3.92,11.61,7.25,16.82,18.65,29.19,31,63.47,32.38,98.26.41,10.79.54,22.72-3.85,32.82-3.05,7-10.45,13.31-18.39,13.35-10,0-15.38-9.73-18.86-17.73-20.22-46.38-21.91-98.42-23-149-.16-7,1.53-24.71-5.1-29-7.62-4.94-15.26,6.62-15.48,13.2-.28,7.95,3,16.85-1.2,24.25-3.64,6.35-12.49,8.62-19.25,5.79s-11.19-9.85-12.11-17.12c-1.5-11.82,4.49-22.09,11.94-30.73,3.51-4.07,23.85-9,22.87-23.14-.28-4.12-4.12-6.3-5.26-7-7.21-4.22-15.05-3.24-23.33-2.11s-16.27,3.74-24.47,5.3a98.36,98.36,0,0,1-33.23.59c-7.18-1.1-15-3.53-18.65-9.79C-5.3,111.92,6.73,96,19.58,92.22c6.66-2,13.87-1.27,20.51.72,7.55,2.26,14.28,6.33,21.46,9.42,4.91,2.12,9.79,5.67,15.07,6.61a38,38,0,0,0,16-.54"/><path class="cls-2" d="M174.42,284.32c3.92,13.48,6.71,27.25,6.34,41.23-.15,5.75-.87,11.62-3.4,16.8a8.36,8.36,0,0,1-2.38,3.18,3.62,3.62,0,0,1-3.78.43,3.79,3.79,0,0,1-1.64-3.45,12.57,12.57,0,0,1,1-3.86,66.53,66.53,0,0,0,3.11-11.19c1.95-10.59,1.28-21.52-.42-32.17-.84-5.27-1.93-10.5-3.08-15.72-.58-2.65-1.21-5.3-1.76-8-1-5.05-.1-5.05,1.7-.13C172.08,276.73,172.85,278.92,174.42,284.32Z"/><path class="cls-2" d="M206,179.88a28.42,28.42,0,0,1,5,11,5.89,5.89,0,0,1,0,2.8,2.53,2.53,0,0,1-2,1.8,2.63,2.63,0,0,1-2.35-1.29,8.59,8.59,0,0,1-1-2.62c-.72-2.63-1.41-5.71-2.5-8.92C200,173.17,200.44,171.77,206,179.88Z"/></g></g></svg>