<svg xmlns="http://www.w3.org/2000/svg" viewBox="0 0 330.43 336.96"><defs><style>.cls-1{fill:blue;}.cls-2{fill:#fff;}</style></defs><g id="레이어_2" data-name="레이어 2"><g id="레이어_1-2" data-name="레이어 1"><path class="cls-1" d="M149.29,109.5c6.93,2.76,13.13-18.38,13.06-34.1-.07-14.43,8.83-19.77,8.07-30.63-.45-6.5-1.29-13.65,3.8-18.53,4.76-4.58,12.25-4.59,17.48-.57,9.8,7.52,7.94,21.5.82,30.07-4.25,5.1-23,44.63-22.94,51.39,0,5.79,4.28,13.61,10,14.51,5.17.82,10.76-5.28,14-8.49a160.26,160.26,0,0,0,35.18-53.22C238.7,35.35,244.1,9,273.61,1.66,287.26-1.74,303.7-.06,315.49,8c7.05,4.84,12.49,12.25,14.09,20.65,2.9,15.15-1.53,25.49-13.77,33.42-9.89,6.41-30.15,8.35-41.64,10.52-15,2.83-30.21,8.1-41.71,19.07-12,11.39-24.86,21.58-33.09,36.21-1.09,1.93-2.14,4.14-1.6,6.29a6.3,6.3,0,0,0,4.24,4.15c4.43,1.52,9.06.37,13.15-1.53,9.89-4.61,18.6-11.28,28.32-16.23,8.37-4.26,19.18-6.25,23.88,3.81,3.05,6.55,1.76,15.65-5,19.34-5,2.73-11,2.21-16.53,2.24-5.79,0-14-.56-19.62.55-4.38.87-17.63,1.52-16.71,12,.65,7.35,34.18,29.69,52.29,42.55,9,6.42,17.55,14.06,22.73,23.86S291.09,247,286,256.89c-6.88,13.36-22.34,14.46-32.82,4.31-12.73-12.32-15.76-34.28-20.72-50.43C227,193,216.05,177.35,200,168c-4.64-2.68-14.73.67-11.85,8.64,3.29,9.09,14.89,16.82,21,24.55,4.74,6,9.16,13,9.47,20.71.23,5.6-2,11.31-5.2,16.18-3.44,5.21-9.74,7.21-15.38,4.28-7-3.65-8.7-11.49-8.92-18.78-.16-5.54,0-11.13-.76-16.63-.54-3.88-1.56-9.18-5.6-11-14.58-6.4-11.35,24.54-11,30.73,1.5,26,9.32,51.42,9.09,77.48-.12,13.48-2.9,38.23-22.44,31.62-12.11-4.09-18.9-17.71-19-30.5-.12-11.54,3.66-22,8.59-32.21,5.2-10.77,7-22,7.18-33.95.16-12.12,2.67-29.19-.85-40.65-2.75-9-13.82-15.85-19.54-5.08l-11.16,21c-1.85,3.5-4.2,7.38-8.09,8.14-5.23,1-9.79-4.86-9.34-10.17s4.25-9.7,8.23-13.25,8.45-6.77,11.08-11.41a9.63,9.63,0,0,0,1.39-6.72c-.51-2.28-2.63-4.29-5-4.07a7.86,7.86,0,0,0-4,2.12c-15.56,12.66-37.85,23.55-49.24,40.34-4.58,6.74-7.24,14.66-11.94,21.32-8.3,11.72-29.07,22.71-43.11,15.39-29.24-15.24-5.55-58.38,16.44-66.79,36.13-13.82,76.57-14.5,100.62-28.49,7-4.06,2.44-12.7-4.17-12.73-10,0-30.47,4.64-36.66-6.21-2.74-4.79-.63-12.87,5-14.76,6.32-2.12,11.46,5.24,17,7.17,6.94,2.43,13.36,1,20-1.62,2.8-1.1,5.68-2.42,7.49-4.82,2.88-3.84,2.16-9.47-.44-13.51-8.71-13.56-24.45-22.56-38.55-29.48-13.64-6.7-33.9-7.07-43.71-20.06C48.55,54.24,51.66,34,65,29c28.16-10.69,51.15,42.11,65.65,57.62,6.4,6.85,10,18.63,18.67,22.93"/><path class="cls-2" d="M306.18,9.74c7.08,4.47,17.14,11.93,15.65,25.35s-9.29,19.82-14.16,21.61a8.9,8.9,0,0,1-5.47.56,2.69,2.69,0,0,1-1-4.56c3.61-3.34,10.71-11,10.71-19.92,0-11.94-12.4-19.31-12.77-23S306.18,9.74,306.18,9.74Z"/><path class="cls-2" d="M274.41,229.37c3.51,2.59,8.22,10.85,6.79,17.73-1.28,6.1-3.85,8.88-5.7,7.77-1.68-1,1.41-5.69,1-13.33A59.72,59.72,0,0,0,274.41,229.37Z"/></g></g></svg>