<svg width="1219" height="942" viewBox="0 0 1219 942" fill="none" xmlns="http://www.w3.org/2000/svg">
<path d="M61.9607 454.5C119.127 343.5 237.66 124.5 278.46 124.5C342.127 304.833 480.261 689.5 523.461 785.5C577.461 905.5 789.961 932 860.961 937C931.961 942 1222.96 952 1218.46 903.075C1213.96 854.15 1098.46 832 1037.32 827.115C976.186 822.231 728.961 673 706.779 357.035C684.598 41.069 474.461 0 417.961 0C361.461 0 295.961 34 278.46 34C260.96 34 236.961 27.0001 192.895 14.7657C148.829 2.53137 19.4605 14.5001 2.34498 186.138C-11.3474 323.448 38.3837 421.258 61.9607 454.5Z" fill="#D9D9D9"/>
</svg>
