<svg width="504" height="242" viewBox="0 0 504 242" fill="none" xmlns="http://www.w3.org/2000/svg">
<path d="M289.5 150.124C294 140.124 301 127.624 277 106.124C283.667 101.79 307.197 95.9671 347.984 107.341C398.969 121.557 398.571 151.466 418.5 167.624C437 182.624 406.5 118.624 392.15 104.679C438.801 108.468 465.5 191.124 481.965 188.124C498.429 185.124 520 121.124 481.965 60.5688C443.929 0.013504 382 -1.87597 309.783 0.659281C262.5 2.31921 237.5 15.1241 229.5 25.6241C219 13.8891 204.852 8.40555 171.5 7.12327C119.5 5.12402 31 40.1233 8.00002 109.876C-15 179.629 15.5 220.123 50 241.623C37.5 177.123 92 100.891 103 100.891C114 100.891 84 109.876 92 150.124C112.5 113.124 141 93.1237 157.515 100.891C167.531 108.658 141.5 125.624 148.5 154.124C175 124.624 171.5 93.1237 204.5 93.1237C237.5 93.1237 227.5 89.6237 257.858 109.876C288.217 130.128 282.801 165.01 289.5 150.124Z" fill="#D9D9D9"/>
</svg>
