<svg width="2106" height="960" viewBox="0 0 2106 960" fill="none" xmlns="http://www.w3.org/2000/svg">
<path d="M552.762 0C609.262 4.49356e-05 809.061 77.7303 952.762 360C1064.76 580 1334.4 631.884 1453.26 700C1531.76 744.985 2101.26 888.075 2105.76 937C2110.26 985.925 1066.76 942 995.762 937C924.762 932 712.262 905.5 658.262 785.5C615.062 689.5 476.928 304.833 413.262 124.5C372.462 124.5 194.761 923 8.76074 923C-14.8162 889.758 8.76064 578.5 84.7607 301.5C130.4 135.159 247.262 0.000122547 316.762 0C362.494 -1.75414e-05 395.762 14.7656 413.262 14.7656C430.762 14.7654 496.262 0 552.762 0Z" fill="#D9D9D9"/>
</svg>
