<svg width="331" height="110" viewBox="0 0 331 110" fill="none" xmlns="http://www.w3.org/2000/svg">
<path d="M64.1881 109.323C90.0088 72.1457 96.6325 48 169 68.5012C175 61.501 201.868 54.001 211.368 54.001C251.453 54.001 288.867 109.323 324.251 109.009C322.635 75.0179 274.367 54.001 267.867 42.8495C292.267 33.9283 316.701 46.5667 325.867 54.001C332.867 46.001 338.168 25.4476 303.367 7.23355C259.867 -15.534 180.368 22.0011 153.368 30.0011C126.368 38.0011 99.8675 5.50148 46.5363 7.23355C-6.7949 8.96562 -6.63248 42.8495 9.36752 68.5012C18.8675 50.5014 52.8675 36.5014 85.1966 42.8495C61.0256 62.1976 26.8675 93.0012 64.1881 109.323Z" fill="#D9D9D9"/>
</svg>
