<svg width="742" height="828" viewBox="0 0 742 828" fill="none" xmlns="http://www.w3.org/2000/svg">
<path d="M145.996 331.838C151.834 283.659 211.158 123.016 270.658 121.516C412.658 140.017 410.158 811.516 717.658 827.016C765.793 829.443 728.249 781.431 717.658 722.516C701.002 629.855 686.243 496.222 681.658 382.516C674.158 196.516 566.001 0.00166197 432.158 0.00260544C341.158 0.0032469 322.158 13.0168 297.158 13.0168C272.158 13.0168 257.158 -0.219385 206.699 0.00276539C96.2404 0.489071 -9.34186 90.0164 0.658141 284.016C10.6581 478.016 102.974 590.516 75.7813 505.058C54.0274 436.69 69.635 343.544 80.158 305.516C86.4914 291.183 96.766 273.235 87.1974 316.109C75.2366 369.701 110.158 501.016 102.974 419.134C95.7894 337.252 140.158 204.516 145.996 207.516C151.834 210.516 157.658 198.516 145.996 231.016C134.334 263.516 140.158 380.016 145.996 331.838Z" fill="#D9D9D9"/>
</svg>
