<svg width="592" height="513" viewBox="0 0 592 513" fill="none" xmlns="http://www.w3.org/2000/svg">
<path d="M224.376 211.354C243.958 186.575 290.775 122.128 326.275 109.628C385.108 264.628 511.928 560.825 548.54 505.617C594.306 436.607 591.775 323.804 591.775 294.128C590.586 251.248 570.275 137.128 526.92 85.8293C422.608 -37.5946 297.775 1.62761 262.275 24.6276C239.275 4.62761 104.775 -17.8724 33.7747 109.628C-37.2253 237.128 24.2747 450.127 33.7747 445.127C43.2747 440.127 57.2747 394.127 62.7747 350.627C68.2747 307.127 134.275 151.628 159.983 171.19C126.55 197.241 116.58 264.336 115.775 294.627C117.441 301.127 124.275 305.027 138.275 268.627C155.775 223.127 233.775 130.128 241.775 146.128C225.775 157.628 190.275 242.041 197.775 245.628C205.275 249.215 206.775 233.628 224.376 211.354Z" fill="#D9D9D9"/>
</svg>
